<?xml version="1.0" encoding="utf-8" standalone="no"?>
<!DOCTYPE svg PUBLIC "-//W3C//DTD SVG 1.1//EN"
  "http://www.w3.org/Graphics/SVG/1.1/DTD/svg11.dtd">
<svg xmlns:xlink="http://www.w3.org/1999/xlink" width="528.7815pt" height="534.811244pt" viewBox="0 0 528.7815 534.811244" xmlns="http://www.w3.org/2000/svg" version="1.1">
 <metadata>
  <rdf:RDF xmlns:dc="http://purl.org/dc/elements/1.1/" xmlns:cc="http://creativecommons.org/ns#" xmlns:rdf="http://www.w3.org/1999/02/22-rdf-syntax-ns#">
   <cc:Work>
    <dc:type rdf:resource="http://purl.org/dc/dcmitype/StillImage"/>
    <dc:date>2023-05-30T09:56:25.946545</dc:date>
    <dc:format>image/svg+xml</dc:format>
    <dc:creator>
     <cc:Agent>
      <dc:title>Matplotlib v3.5.2, https://matplotlib.org/</dc:title>
     </cc:Agent>
    </dc:creator>
   </cc:Work>
  </rdf:RDF>
 </metadata>
 <defs>
  <style type="text/css">*{stroke-linejoin: round; stroke-linecap: butt}</style>
 </defs>
 <g id="figure_1">
  <g id="patch_1">
   <path d="M 0 534.811244 
L 528.7815 534.811244 
L 528.7815 0 
L 0 0 
z
" style="fill: #ffffff"/>
  </g>
  <g id="axes_1">
   <g id="patch_2">
    <path d="M 74.869063 474.103681 
L 510.7815 474.103681 
L 510.7815 38.191244 
L 74.869063 38.191244 
z
" style="fill: #ffffff"/>
   </g>
   <g id="patch_3">
    <path d="M 111.195099 357.860365 
C 118.902121 357.860365 126.294521 354.798332 131.744208 349.348645 
C 137.193896 343.898957 140.255928 336.506557 140.255928 328.799535 
C 140.255928 321.092513 137.193896 313.700114 131.744208 308.250426 
C 126.294521 302.800739 118.902121 299.738706 111.195099 299.738706 
C 103.488077 299.738706 96.095677 302.800739 90.64599 308.250426 
C 85.196302 313.700114 82.13427 321.092513 82.13427 328.799535 
C 82.13427 336.506557 85.196302 343.898957 90.64599 349.348645 
C 96.095677 354.798332 103.488077 357.860365 111.195099 357.860365 
z
" clip-path="url(#pa3f165a2d6)" style="stroke: #000000; stroke-linejoin: miter"/>
   </g>
   <g id="patch_4">
    <path d="M 125.725514 180.589307 
C 134.588589 180.589307 143.089849 177.06797 149.356989 170.800829 
C 155.62413 164.533688 159.145467 156.032428 159.145467 147.169353 
C 159.145467 138.306278 155.62413 129.805018 149.356989 123.537877 
C 143.089849 117.270737 134.588589 113.7494 125.725514 113.7494 
C 116.862438 113.7494 108.361178 117.270737 102.094038 123.537877 
C 95.826897 129.805018 92.30556 138.306278 92.30556 147.169353 
C 92.30556 156.032428 95.826897 164.533688 102.094038 170.800829 
C 108.361178 177.06797 116.862438 180.589307 125.725514 180.589307 
z
" clip-path="url(#pa3f165a2d6)" style="stroke: #000000; stroke-linejoin: miter"/>
   </g>
   <g id="patch_5">
    <path d="M 111.195099 285.208292 
C 116.975365 285.208292 122.519665 282.911767 126.606931 278.824502 
C 130.694197 274.737236 132.990721 269.192936 132.990721 263.41267 
C 132.990721 257.632403 130.694197 252.088103 126.606931 248.000838 
C 122.519665 243.913572 116.975365 241.617048 111.195099 241.617048 
C 105.414832 241.617048 99.870533 243.913572 95.783267 248.000838 
C 91.696001 252.088103 89.399477 257.632403 89.399477 263.41267 
C 89.399477 269.192936 91.696001 274.737236 95.783267 278.824502 
C 99.870533 282.911767 105.414832 285.208292 111.195099 285.208292 
z
" clip-path="url(#pa3f165a2d6)" style="stroke: #000000; stroke-linejoin: miter"/>
   </g>
   <g id="patch_6">
    <path d="M 162.05155 241.617048 
C 169.758572 241.617048 177.150972 238.555016 182.600659 233.105328 
C 188.050347 227.655641 191.112379 220.263241 191.112379 212.556219 
C 191.112379 204.849197 188.050347 197.456797 182.600659 192.007109 
C 177.150972 186.557422 169.758572 183.49539 162.05155 183.49539 
C 154.344528 183.49539 146.952128 186.557422 141.502441 192.007109 
C 136.052753 197.456797 132.990721 204.849197 132.990721 212.556219 
C 132.990721 220.263241 136.052753 227.655641 141.502441 233.105328 
C 146.952128 238.555016 154.344528 241.617048 162.05155 241.617048 
z
" clip-path="url(#pa3f165a2d6)" style="stroke: #000000; stroke-linejoin: miter"/>
   </g>
   <g id="patch_7">
    <path d="M 169.316757 415.982023 
C 180.87729 415.982023 191.96589 411.388974 200.140421 403.214443 
C 208.314953 395.039912 212.908001 383.951312 212.908001 372.390779 
C 212.908001 360.830246 208.314953 349.741646 200.140421 341.567115 
C 191.96589 333.392584 180.87729 328.799535 169.316757 328.799535 
C 157.756224 328.799535 146.667624 333.392584 138.493093 341.567115 
C 130.318562 349.741646 125.725514 360.830246 125.725514 372.390779 
C 125.725514 383.951312 130.318562 395.039912 138.493093 403.214443 
C 146.667624 411.388974 157.756224 415.982023 169.316757 415.982023 
z
" clip-path="url(#pa3f165a2d6)" style="stroke: #000000; stroke-linejoin: miter"/>
   </g>
   <g id="patch_8">
    <path d="M 176.581965 183.49539 
C 182.362231 183.49539 187.906531 181.198865 191.993797 177.1116 
C 196.081062 173.024334 198.377586 167.480034 198.377586 161.699768 
C 198.377586 155.919501 196.081062 150.375201 191.993797 146.287936 
C 187.906531 142.20067 182.362231 139.904146 176.581965 139.904146 
C 170.801698 139.904146 165.257398 142.20067 161.170133 146.287936 
C 157.082867 150.375201 154.786343 155.919501 154.786343 161.699768 
C 154.786343 167.480034 157.082867 173.024334 161.170133 177.1116 
C 165.257398 181.198865 170.801698 183.49539 176.581965 183.49539 
z
" clip-path="url(#pa3f165a2d6)" style="stroke: #000000; stroke-linejoin: miter"/>
   </g>
   <g id="patch_9">
    <path d="M 191.112379 321.534328 
C 200.746157 321.534328 209.986656 317.706788 216.798766 310.894678 
C 223.610875 304.082569 227.438416 294.842069 227.438416 285.208292 
C 227.438416 275.574514 223.610875 266.334014 216.798766 259.521905 
C 209.986656 252.709796 200.746157 248.882255 191.112379 248.882255 
C 181.478602 248.882255 172.238102 252.709796 165.425992 259.521905 
C 158.613883 266.334014 154.786343 275.574514 154.786343 285.208292 
C 154.786343 294.842069 158.613883 304.082569 165.425992 310.894678 
C 172.238102 317.706788 181.478602 321.534328 191.112379 321.534328 
z
" clip-path="url(#pa3f165a2d6)" style="stroke: #000000; stroke-linejoin: miter"/>
   </g>
   <g id="patch_10">
    <path d="M 249.234037 263.41267 
C 255.014304 263.41267 260.558604 261.116146 264.64587 257.02888 
C 268.733135 252.941614 271.029659 247.397314 271.029659 241.617048 
C 271.029659 235.836781 268.733135 230.292482 264.64587 226.205216 
C 260.558604 222.11795 255.014304 219.821426 249.234037 219.821426 
C 243.453771 219.821426 237.909471 222.11795 233.822205 226.205216 
C 229.73494 230.292482 227.438416 235.836781 227.438416 241.617048 
C 227.438416 247.397314 229.73494 252.941614 233.822205 257.02888 
C 237.909471 261.116146 243.453771 263.41267 249.234037 263.41267 
z
" clip-path="url(#pa3f165a2d6)" style="stroke: #000000; stroke-linejoin: miter"/>
   </g>
   <g id="patch_11">
    <path d="M 278.294867 227.086633 
C 286.001889 227.086633 293.394289 224.024601 298.843976 218.574914 
C 304.293664 213.125226 307.355696 205.732826 307.355696 198.025804 
C 307.355696 190.318782 304.293664 182.926382 298.843976 177.476695 
C 293.394289 172.027007 286.001889 168.964975 278.294867 168.964975 
C 270.587845 168.964975 263.195445 172.027007 257.745757 177.476695 
C 252.29607 182.926382 249.234037 190.318782 249.234037 198.025804 
C 249.234037 205.732826 252.29607 213.125226 257.745757 218.574914 
C 263.195445 224.024601 270.587845 227.086633 278.294867 227.086633 
z
" clip-path="url(#pa3f165a2d6)" style="stroke: #000000; stroke-linejoin: miter"/>
   </g>
   <g id="patch_12">
    <path d="M 285.560074 357.860365 
C 297.120607 357.860365 308.209207 353.267316 316.383738 345.092785 
C 324.558269 336.918254 329.151318 325.829654 329.151318 314.269121 
C 329.151318 302.708588 324.558269 291.619988 316.383738 283.445457 
C 308.209207 275.270926 297.120607 270.677877 285.560074 270.677877 
C 273.999541 270.677877 262.910941 275.270926 254.73641 283.445457 
C 246.561879 291.619988 241.96883 302.708588 241.96883 314.269121 
C 241.96883 325.829654 246.561879 336.918254 254.73641 345.092785 
C 262.910941 353.267316 273.999541 357.860365 285.560074 357.860365 
z
" clip-path="url(#pa3f165a2d6)" style="stroke: #000000; stroke-linejoin: miter"/>
   </g>
   <g id="patch_13">
    <path d="M 292.825281 147.169353 
C 302.459059 147.169353 311.699559 143.341813 318.511668 136.529703 
C 325.323777 129.717594 329.151318 120.477094 329.151318 110.843317 
C 329.151318 101.209539 325.323777 91.969039 318.511668 85.15693 
C 311.699559 78.344821 302.459059 74.51728 292.825281 74.51728 
C 283.191504 74.51728 273.951004 78.344821 267.138895 85.15693 
C 260.326785 91.969039 256.499245 101.209539 256.499245 110.843317 
C 256.499245 120.477094 260.326785 129.717594 267.138895 136.529703 
C 273.951004 143.341813 283.191504 147.169353 292.825281 147.169353 
z
" clip-path="url(#pa3f165a2d6)" style="stroke: #000000; stroke-linejoin: miter"/>
   </g>
   <g id="patch_14">
    <path d="M 380.007769 285.208292 
C 387.714791 285.208292 395.107191 282.146259 400.556878 276.696572 
C 406.006566 271.246884 409.068598 263.854484 409.068598 256.147462 
C 409.068598 248.440441 406.006566 241.048041 400.556878 235.598353 
C 395.107191 230.148666 387.714791 227.086633 380.007769 227.086633 
C 372.300747 227.086633 364.908347 230.148666 359.458659 235.598353 
C 354.008972 241.048041 350.94694 248.440441 350.94694 256.147462 
C 350.94694 263.854484 354.008972 271.246884 359.458659 276.696572 
C 364.908347 282.146259 372.300747 285.208292 380.007769 285.208292 
z
" clip-path="url(#pa3f165a2d6)" style="stroke: #000000; stroke-linejoin: miter"/>
   </g>
   <g id="patch_15">
    <path d="M 401.803391 328.799535 
C 407.583657 328.799535 413.127957 326.503011 417.215223 322.415746 
C 421.302488 318.32848 423.599012 312.78418 423.599012 307.003914 
C 423.599012 301.223647 421.302488 295.679347 417.215223 291.592082 
C 413.127957 287.504816 407.583657 285.208292 401.803391 285.208292 
C 396.023124 285.208292 390.478824 287.504816 386.391559 291.592082 
C 382.304293 295.679347 380.007769 301.223647 380.007769 307.003914 
C 380.007769 312.78418 382.304293 318.32848 386.391559 322.415746 
C 390.478824 326.503011 396.023124 328.799535 401.803391 328.799535 
z
" clip-path="url(#pa3f165a2d6)" style="stroke: #000000; stroke-linejoin: miter"/>
   </g>
   <g id="patch_16">
    <path d="M 409.068598 241.617048 
C 416.77562 241.617048 424.16802 238.555016 429.617707 233.105328 
C 435.067395 227.655641 438.129427 220.263241 438.129427 212.556219 
C 438.129427 204.849197 435.067395 197.456797 429.617707 192.007109 
C 424.16802 186.557422 416.77562 183.49539 409.068598 183.49539 
C 401.361576 183.49539 393.969176 186.557422 388.519489 192.007109 
C 383.069801 197.456797 380.007769 204.849197 380.007769 212.556219 
C 380.007769 220.263241 383.069801 227.655641 388.519489 233.105328 
C 393.969176 238.555016 401.361576 241.617048 409.068598 241.617048 
z
" clip-path="url(#pa3f165a2d6)" style="stroke: #000000; stroke-linejoin: miter"/>
   </g>
   <g id="patch_17">
    <path d="M 467.190256 299.738706 
C 474.897278 299.738706 482.289678 296.676674 487.739366 291.226986 
C 493.189053 285.777299 496.251085 278.384899 496.251085 270.677877 
C 496.251085 262.970855 493.189053 255.578455 487.739366 250.128768 
C 482.289678 244.67908 474.897278 241.617048 467.190256 241.617048 
C 459.483234 241.617048 452.090834 244.67908 446.641147 250.128768 
C 441.191459 255.578455 438.129427 262.970855 438.129427 270.677877 
C 438.129427 278.384899 441.191459 285.777299 446.641147 291.226986 
C 452.090834 296.676674 459.483234 299.738706 467.190256 299.738706 
z
" clip-path="url(#pa3f165a2d6)" style="stroke: #000000; stroke-linejoin: miter"/>
   </g>
   <g id="patch_18">
    <path d="M 350.94694 205.291011 
C 356.727206 205.291011 362.271506 202.994487 366.358772 198.907222 
C 370.446037 194.819956 372.742561 189.275656 372.742561 183.49539 
C 372.742561 177.715123 370.446037 172.170823 366.358772 168.083558 
C 362.271506 163.996292 356.727206 161.699768 350.94694 161.699768 
C 345.166673 161.699768 339.622373 163.996292 335.535108 168.083558 
C 331.447842 172.170823 329.151318 177.715123 329.151318 183.49539 
C 329.151318 189.275656 331.447842 194.819956 335.535108 198.907222 
C 339.622373 202.994487 345.166673 205.291011 350.94694 205.291011 
z
" clip-path="url(#pa3f165a2d6)" style="stroke: #000000; stroke-linejoin: miter"/>
   </g>
   <g id="patch_19">
    <path d="M 365.477354 343.32995 
C 369.330865 343.32995 373.027065 341.798934 375.751909 339.07409 
C 378.476753 336.349246 380.007769 332.653046 380.007769 328.799535 
C 380.007769 324.946024 378.476753 321.249824 375.751909 318.524981 
C 373.027065 315.800137 369.330865 314.269121 365.477354 314.269121 
C 361.623843 314.269121 357.927643 315.800137 355.202799 318.524981 
C 352.477956 321.249824 350.94694 324.946024 350.94694 328.799535 
C 350.94694 332.653046 352.477956 336.349246 355.202799 339.07409 
C 357.927643 341.798934 361.623843 343.32995 365.477354 343.32995 
z
" clip-path="url(#pa3f165a2d6)" style="stroke: #000000; stroke-linejoin: miter"/>
   </g>
   <g id="patch_20">
    <path d="M 467.190256 190.760597 
C 478.750789 190.760597 489.839389 186.167548 498.01392 177.993017 
C 506.188452 169.818486 510.7815 158.729886 510.7815 147.169353 
C 510.7815 135.60882 506.188452 124.52022 498.01392 116.345689 
C 489.839389 108.171158 478.750789 103.578109 467.190256 103.578109 
C 455.629723 103.578109 444.541123 108.171158 436.366592 116.345689 
C 428.192061 124.52022 423.599012 135.60882 423.599012 147.169353 
C 423.599012 158.729886 428.192061 169.818486 436.366592 177.993017 
C 444.541123 186.167548 455.629723 190.760597 467.190256 190.760597 
z
" clip-path="url(#pa3f165a2d6)" style="stroke: #000000; stroke-linejoin: miter"/>
   </g>
   <g id="patch_21">
    <path d="M 438.129427 365.125572 
C 443.909694 365.125572 449.453993 362.829048 453.541259 358.741782 
C 457.628525 354.654516 459.925049 349.110216 459.925049 343.32995 
C 459.925049 337.549684 457.628525 332.005384 453.541259 327.918118 
C 449.453993 323.830852 443.909694 321.534328 438.129427 321.534328 
C 432.349161 321.534328 426.804861 323.830852 422.717595 327.918118 
C 418.630329 332.005384 416.333805 337.549684 416.333805 343.32995 
C 416.333805 349.110216 418.630329 354.654516 422.717595 358.741782 
C 426.804861 362.829048 432.349161 365.125572 438.129427 365.125572 
z
" clip-path="url(#pa3f165a2d6)" style="stroke: #000000; stroke-linejoin: miter"/>
   </g>
   <g id="patch_22">
    <path d="M 321.88611 227.086633 
C 323.812866 227.086633 325.660966 226.321125 327.023388 224.958703 
C 328.38581 223.596282 329.151318 221.748182 329.151318 219.821426 
C 329.151318 217.894671 328.38581 216.046571 327.023388 214.684149 
C 325.660966 213.321727 323.812866 212.556219 321.88611 212.556219 
C 319.959355 212.556219 318.111255 213.321727 316.748833 214.684149 
C 315.386411 216.046571 314.620903 217.894671 314.620903 219.821426 
C 314.620903 221.748182 315.386411 223.596282 316.748833 224.958703 
C 318.111255 226.321125 319.959355 227.086633 321.88611 227.086633 
z
" clip-path="url(#pa3f165a2d6)" style="stroke: #000000; stroke-linejoin: miter"/>
   </g>
   <g id="patch_23">
    <path d="M 249.234037 161.699768 
C 255.014304 161.699768 260.558604 159.403243 264.64587 155.315978 
C 268.733135 151.228712 271.029659 145.684412 271.029659 139.904146 
C 271.029659 134.123879 268.733135 128.579579 264.64587 124.492314 
C 260.558604 120.405048 255.014304 118.108524 249.234037 118.108524 
C 243.453771 118.108524 237.909471 120.405048 233.822205 124.492314 
C 229.73494 128.579579 227.438416 134.123879 227.438416 139.904146 
C 227.438416 145.684412 229.73494 151.228712 233.822205 155.315978 
C 237.909471 159.403243 243.453771 161.699768 249.234037 161.699768 
z
" clip-path="url(#pa3f165a2d6)" style="stroke: #000000; stroke-linejoin: miter"/>
   </g>
   <g id="patch_24">
    <path d="M 234.703623 186.401472 
C 237.401081 186.401472 239.988421 185.329761 241.895811 183.422371 
C 243.803202 181.51498 244.874913 178.92764 244.874913 176.230182 
C 244.874913 173.532725 243.803202 170.945385 241.895811 169.037994 
C 239.988421 167.130603 237.401081 166.058892 234.703623 166.058892 
C 232.006165 166.058892 229.418825 167.130603 227.511435 169.037994 
C 225.604044 170.945385 224.532333 173.532725 224.532333 176.230182 
C 224.532333 178.92764 225.604044 181.51498 227.511435 183.422371 
C 229.418825 185.329761 232.006165 186.401472 234.703623 186.401472 
z
" clip-path="url(#pa3f165a2d6)" style="stroke: #000000; stroke-linejoin: miter"/>
   </g>
   <g id="patch_25">
    <path d="M 365.477354 394.186401 
C 373.184376 394.186401 380.576776 391.124369 386.026464 385.674681 
C 391.476151 380.224994 394.538183 372.832594 394.538183 365.125572 
C 394.538183 357.41855 391.476151 350.02615 386.026464 344.576463 
C 380.576776 339.126775 373.184376 336.064743 365.477354 336.064743 
C 357.770332 336.064743 350.377932 339.126775 344.928245 344.576463 
C 339.478557 350.02615 336.416525 357.41855 336.416525 365.125572 
C 336.416525 372.832594 339.478557 380.224994 344.928245 385.674681 
C 350.377932 391.124369 357.770332 394.186401 365.477354 394.186401 
z
" clip-path="url(#pa3f165a2d6)" style="stroke: #000000; stroke-linejoin: miter"/>
   </g>
   <g id="patch_26">
    <path d="M 234.703623 397.092484 
C 239.327836 397.092484 243.763276 395.255265 247.033089 391.985452 
C 250.302901 388.71564 252.14012 384.2802 252.14012 379.655986 
C 252.14012 375.031773 250.302901 370.596333 247.033089 367.326521 
C 243.763276 364.056708 239.327836 362.219489 234.703623 362.219489 
C 230.07941 362.219489 225.64397 364.056708 222.374157 367.326521 
C 219.104345 370.596333 217.267125 375.031773 217.267125 379.655986 
C 217.267125 384.2802 219.104345 388.71564 222.374157 391.985452 
C 225.64397 395.255265 230.07941 397.092484 234.703623 397.092484 
z
" clip-path="url(#pa3f165a2d6)" style="stroke: #000000; stroke-linejoin: miter"/>
   </g>
   <g id="patch_27">
    <path d="M 263.764452 408.716816 
C 269.544719 408.716816 275.089018 406.420291 279.176284 402.333026 
C 283.26355 398.24576 285.560074 392.70146 285.560074 386.921194 
C 285.560074 381.140927 283.26355 375.596627 279.176284 371.509362 
C 275.089018 367.422096 269.544719 365.125572 263.764452 365.125572 
C 257.984186 365.125572 252.439886 367.422096 248.35262 371.509362 
C 244.265354 375.596627 241.96883 381.140927 241.96883 386.921194 
C 241.96883 392.70146 244.265354 398.24576 248.35262 402.333026 
C 252.439886 406.420291 257.984186 408.716816 263.764452 408.716816 
z
" clip-path="url(#pa3f165a2d6)" style="stroke: #000000; stroke-linejoin: miter"/>
   </g>
   <g id="patch_28">
    <path d="M 336.416525 383.28859 
C 339.306658 383.28859 342.078808 382.140328 344.122441 380.096695 
C 346.166074 378.053062 347.314336 375.280912 347.314336 372.390779 
C 347.314336 369.500646 346.166074 366.728496 344.122441 364.684863 
C 342.078808 362.64123 339.306658 361.492968 336.416525 361.492968 
C 333.526392 361.492968 330.754242 362.64123 328.710609 364.684863 
C 326.666976 366.728496 325.518714 369.500646 325.518714 372.390779 
C 325.518714 375.280912 326.666976 378.053062 328.710609 380.096695 
C 330.754242 382.140328 333.526392 383.28859 336.416525 383.28859 
z
" clip-path="url(#pa3f165a2d6)" style="stroke: #000000; stroke-linejoin: miter"/>
   </g>
   <g id="patch_29">
    <path d="M 409.068598 132.638939 
C 414.848864 132.638939 420.393164 130.342414 424.48043 126.255149 
C 428.567696 122.167883 430.86422 116.623583 430.86422 110.843317 
C 430.86422 105.06305 428.567696 99.51875 424.48043 95.431485 
C 420.393164 91.344219 414.848864 89.047695 409.068598 89.047695 
C 403.288331 89.047695 397.744032 91.344219 393.656766 95.431485 
C 389.5695 99.51875 387.272976 105.06305 387.272976 110.843317 
C 387.272976 116.623583 389.5695 122.167883 393.656766 126.255149 
C 397.744032 130.342414 403.288331 132.638939 409.068598 132.638939 
z
" clip-path="url(#pa3f165a2d6)" style="stroke: #000000; stroke-linejoin: miter"/>
   </g>
   <g id="patch_30">
    <path d="M 220.173208 216.915343 
C 223.256017 216.915343 226.212977 215.69053 228.392852 213.510655 
C 230.572727 211.33078 231.79754 208.37382 231.79754 205.291011 
C 231.79754 202.208203 230.572727 199.251243 228.392852 197.071368 
C 226.212977 194.891493 223.256017 193.66668 220.173208 193.66668 
C 217.0904 193.66668 214.13344 194.891493 211.953565 197.071368 
C 209.77369 199.251243 208.548877 202.208203 208.548877 205.291011 
C 208.548877 208.37382 209.77369 211.33078 211.953565 213.510655 
C 214.13344 215.69053 217.0904 216.915343 220.173208 216.915343 
z
" clip-path="url(#pa3f165a2d6)" style="stroke: #000000; stroke-linejoin: miter"/>
   </g>
   <g id="patch_31">
    <path d="M 365.477354 128.279814 
C 370.101567 128.279814 374.537007 126.442595 377.80682 123.172782 
C 381.076632 119.90297 382.913852 115.46753 382.913852 110.843317 
C 382.913852 106.219103 381.076632 101.783664 377.80682 98.513851 
C 374.537007 95.244039 370.101567 93.406819 365.477354 93.406819 
C 360.853141 93.406819 356.417701 95.244039 353.147889 98.513851 
C 349.878076 101.783664 348.040857 106.219103 348.040857 110.843317 
C 348.040857 115.46753 349.878076 119.90297 353.147889 123.172782 
C 356.417701 126.442595 360.853141 128.279814 365.477354 128.279814 
z
" clip-path="url(#pa3f165a2d6)" style="stroke: #000000; stroke-linejoin: miter"/>
   </g>
   <g id="patch_32">
    <path d="M 394.538183 158.793685 
C 397.620992 158.793685 400.577952 157.568872 402.757827 155.388997 
C 404.937702 153.209122 406.162515 150.252162 406.162515 147.169353 
C 406.162515 144.086544 404.937702 141.129584 402.757827 138.949709 
C 400.577952 136.769834 397.620992 135.545021 394.538183 135.545021 
C 391.455375 135.545021 388.498415 136.769834 386.31854 138.949709 
C 384.138665 141.129584 382.913852 144.086544 382.913852 147.169353 
C 382.913852 150.252162 384.138665 153.209122 386.31854 155.388997 
C 388.498415 157.568872 391.455375 158.793685 394.538183 158.793685 
z
" clip-path="url(#pa3f165a2d6)" style="stroke: #000000; stroke-linejoin: miter"/>
   </g>
   <g id="patch_33">
    <path d="M 481.720671 231.445758 
C 484.80348 231.445758 487.76044 230.220945 489.940315 228.04107 
C 492.12019 225.861195 493.345002 222.904235 493.345002 219.821426 
C 493.345002 216.738617 492.12019 213.781657 489.940315 211.601782 
C 487.76044 209.421907 484.80348 208.197094 481.720671 208.197094 
C 478.637862 208.197094 475.680902 209.421907 473.501027 211.601782 
C 471.321152 213.781657 470.096339 216.738617 470.096339 219.821426 
C 470.096339 222.904235 471.321152 225.861195 473.501027 228.04107 
C 475.680902 230.220945 478.637862 231.445758 481.720671 231.445758 
z
" clip-path="url(#pa3f165a2d6)" style="stroke: #000000; stroke-linejoin: miter"/>
   </g>
   <g id="patch_34">
    <path d="M 321.88611 272.130919 
C 326.124973 272.130919 330.190792 270.446801 333.188121 267.449473 
C 336.185449 264.452145 337.869566 260.386325 337.869566 256.147462 
C 337.869566 251.9086 336.185449 247.84278 333.188121 244.845452 
C 330.190792 241.848124 326.124973 240.164006 321.88611 240.164006 
C 317.647248 240.164006 313.581428 241.848124 310.5841 244.845452 
C 307.586772 247.84278 305.902654 251.9086 305.902654 256.147462 
C 305.902654 260.386325 307.586772 264.452145 310.5841 267.449473 
C 313.581428 270.446801 317.647248 272.130919 321.88611 272.130919 
z
" clip-path="url(#pa3f165a2d6)" style="stroke: #000000; stroke-linejoin: miter"/>
   </g>
   <g id="patch_35">
    <path d="M 336.416525 296.832623 
C 337.572578 296.832623 338.681438 296.373318 339.498891 295.555865 
C 340.316345 294.738412 340.775649 293.629552 340.775649 292.473499 
C 340.775649 291.317446 340.316345 290.208586 339.498891 289.391133 
C 338.681438 288.573679 337.572578 288.114375 336.416525 288.114375 
C 335.260472 288.114375 334.151612 288.573679 333.334159 289.391133 
C 332.516705 290.208586 332.057401 291.317446 332.057401 292.473499 
C 332.057401 293.629552 332.516705 294.738412 333.334159 295.555865 
C 334.151612 296.373318 335.260472 296.832623 336.416525 296.832623 
z
" clip-path="url(#pa3f165a2d6)" style="stroke: #000000; stroke-linejoin: miter"/>
   </g>
   <g id="patch_36">
    <path d="M 205.642794 334.611701 
C 207.184198 334.611701 208.662678 333.999295 209.752616 332.909357 
C 210.842553 331.81942 211.45496 330.34094 211.45496 328.799535 
C 211.45496 327.258131 210.842553 325.779651 209.752616 324.689714 
C 208.662678 323.599776 207.184198 322.98737 205.642794 322.98737 
C 204.101389 322.98737 202.622909 323.599776 201.532972 324.689714 
C 200.443034 325.779651 199.830628 327.258131 199.830628 328.799535 
C 199.830628 330.34094 200.443034 331.81942 201.532972 332.909357 
C 202.622909 333.999295 204.101389 334.611701 205.642794 334.611701 
z
" clip-path="url(#pa3f165a2d6)" style="stroke: #000000; stroke-linejoin: miter"/>
   </g>
   <g id="patch_37">
    <path d="M 234.703623 357.860365 
C 236.630378 357.860365 238.478478 357.094857 239.8409 355.732435 
C 241.203322 354.370013 241.96883 352.521913 241.96883 350.595157 
C 241.96883 348.668402 241.203322 346.820302 239.8409 345.45788 
C 238.478478 344.095458 236.630378 343.32995 234.703623 343.32995 
C 232.776867 343.32995 230.928767 344.095458 229.566346 345.45788 
C 228.203924 346.820302 227.438416 348.668402 227.438416 350.595157 
C 227.438416 352.521913 228.203924 354.370013 229.566346 355.732435 
C 230.928767 357.094857 232.776867 357.860365 234.703623 357.860365 
z
" clip-path="url(#pa3f165a2d6)" style="stroke: #000000; stroke-linejoin: miter"/>
   </g>
   <g id="patch_38">
    <path d="M 183.847172 132.638939 
C 189.627438 132.638939 195.171738 130.342414 199.259004 126.255149 
C 203.34627 122.167883 205.642794 116.623583 205.642794 110.843317 
C 205.642794 105.06305 203.34627 99.51875 199.259004 95.431485 
C 195.171738 91.344219 189.627438 89.047695 183.847172 89.047695 
C 178.066905 89.047695 172.522605 91.344219 168.43534 95.431485 
C 164.348074 99.51875 162.05155 105.06305 162.05155 110.843317 
C 162.05155 116.623583 164.348074 122.167883 168.43534 126.255149 
C 172.522605 130.342414 178.066905 132.638939 183.847172 132.638939 
z
" clip-path="url(#pa3f165a2d6)" style="stroke: #000000; stroke-linejoin: miter"/>
   </g>
   <g id="patch_39">
    <path d="M 249.234037 92.680298 
C 252.124171 92.680298 254.896321 91.532036 256.939954 89.488404 
C 258.983586 87.444771 260.131848 84.672621 260.131848 81.782487 
C 260.131848 78.892354 258.983586 76.120204 256.939954 74.076571 
C 254.896321 72.032939 252.124171 70.884677 249.234037 70.884677 
C 246.343904 70.884677 243.571754 72.032939 241.528121 74.076571 
C 239.484489 76.120204 238.336227 78.892354 238.336227 81.782487 
C 238.336227 84.672621 239.484489 87.444771 241.528121 89.488404 
C 243.571754 91.532036 246.343904 92.680298 249.234037 92.680298 
z
" clip-path="url(#pa3f165a2d6)" style="stroke: #000000; stroke-linejoin: miter"/>
   </g>
   <g id="patch_40">
    <path d="M 227.438416 117.382003 
C 229.172496 117.382003 230.835786 116.693046 232.061965 115.466866 
C 233.288145 114.240687 233.977102 112.577397 233.977102 110.843317 
C 233.977102 109.109237 233.288145 107.445947 232.061965 106.219767 
C 230.835786 104.993587 229.172496 104.30463 227.438416 104.30463 
C 225.704336 104.30463 224.041046 104.993587 222.814866 106.219767 
C 221.588686 107.445947 220.899729 109.109237 220.899729 110.843317 
C 220.899729 112.577397 221.588686 114.240687 222.814866 115.466866 
C 224.041046 116.693046 225.704336 117.382003 227.438416 117.382003 
z
" clip-path="url(#pa3f165a2d6)" style="stroke: #000000; stroke-linejoin: miter"/>
   </g>
   <g id="patch_41">
    <path d="M 438.129427 402.90465 
C 442.368289 402.90465 446.434109 401.220532 449.431437 398.223204 
C 452.428765 395.225876 454.112883 391.160056 454.112883 386.921194 
C 454.112883 382.682332 452.428765 378.616512 449.431437 375.619184 
C 446.434109 372.621855 442.368289 370.937738 438.129427 370.937738 
C 433.890565 370.937738 429.824745 372.621855 426.827417 375.619184 
C 423.830089 378.616512 422.145971 382.682332 422.145971 386.921194 
C 422.145971 391.160056 423.830089 395.225876 426.827417 398.223204 
C 429.824745 401.220532 433.890565 402.90465 438.129427 402.90465 
z
" clip-path="url(#pa3f165a2d6)" style="stroke: #000000; stroke-linejoin: miter"/>
   </g>
   <g id="patch_42">
    <path d="M 336.416525 154.43456 
C 338.34328 154.43456 340.19138 153.669052 341.553802 152.30663 
C 342.916224 150.944209 343.681732 149.096109 343.681732 147.169353 
C 343.681732 145.242598 342.916224 143.394498 341.553802 142.032076 
C 340.19138 140.669654 338.34328 139.904146 336.416525 139.904146 
C 334.48977 139.904146 332.64167 140.669654 331.279248 142.032076 
C 329.916826 143.394498 329.151318 145.242598 329.151318 147.169353 
C 329.151318 149.096109 329.916826 150.944209 331.279248 152.30663 
C 332.64167 153.669052 334.48977 154.43456 336.416525 154.43456 
z
" clip-path="url(#pa3f165a2d6)" style="stroke: #000000; stroke-linejoin: miter"/>
   </g>
   <g id="patch_43">
    <path d="M 307.355696 395.639442 
C 309.667802 395.639442 311.885522 394.720833 313.520429 393.085927 
C 315.155335 391.45102 316.073945 389.2333 316.073945 386.921194 
C 316.073945 384.609087 315.155335 382.391367 313.520429 380.756461 
C 311.885522 379.121555 309.667802 378.202945 307.355696 378.202945 
C 305.043589 378.202945 302.825869 379.121555 301.190963 380.756461 
C 299.556057 382.391367 298.637447 384.609087 298.637447 386.921194 
C 298.637447 389.2333 299.556057 391.45102 301.190963 393.085927 
C 302.825869 394.720833 305.043589 395.639442 307.355696 395.639442 
z
" clip-path="url(#pa3f165a2d6)" style="stroke: #000000; stroke-linejoin: miter"/>
   </g>
   <g id="patch_44">
    <path d="M 467.190256 354.954282 
C 470.273065 354.954282 473.230025 353.729469 475.4099 351.549594 
C 477.589775 349.369719 478.814588 346.412759 478.814588 343.32995 
C 478.814588 340.247141 477.589775 337.290181 475.4099 335.110306 
C 473.230025 332.930431 470.273065 331.705618 467.190256 331.705618 
C 464.107447 331.705618 461.150488 332.930431 458.970613 335.110306 
C 456.790737 337.290181 455.565925 340.247141 455.565925 343.32995 
C 455.565925 346.412759 456.790737 349.369719 458.970613 351.549594 
C 461.150488 353.729469 464.107447 354.954282 467.190256 354.954282 
z
" clip-path="url(#pa3f165a2d6)" style="stroke: #000000; stroke-linejoin: miter"/>
   </g>
   <g id="patch_45">
    <path d="M 481.720671 385.468152 
C 485.188831 385.468152 488.515411 384.090238 490.96777 381.637878 
C 493.420129 379.185519 494.798044 375.858939 494.798044 372.390779 
C 494.798044 368.922619 493.420129 365.596039 490.96777 363.14368 
C 488.515411 360.691321 485.188831 359.313406 481.720671 359.313406 
C 478.252511 359.313406 474.925931 360.691321 472.473572 363.14368 
C 470.021212 365.596039 468.643298 368.922619 468.643298 372.390779 
C 468.643298 375.858939 470.021212 379.185519 472.473572 381.637878 
C 474.925931 384.090238 478.252511 385.468152 481.720671 385.468152 
z
" clip-path="url(#pa3f165a2d6)" style="stroke: #000000; stroke-linejoin: miter"/>
   </g>
   <g id="patch_46">
    <path d="M 147.521135 109.390275 
C 150.989295 109.390275 154.315875 108.012361 156.768235 105.560001 
C 159.220594 103.107642 160.598509 99.781062 160.598509 96.312902 
C 160.598509 92.844742 159.220594 89.518162 156.768235 87.065803 
C 154.315875 84.613443 150.989295 83.235529 147.521135 83.235529 
C 144.052976 83.235529 140.726396 84.613443 138.274036 87.065803 
C 135.821677 89.518162 134.443762 92.844742 134.443762 96.312902 
C 134.443762 99.781062 135.821677 103.107642 138.274036 105.560001 
C 140.726396 108.012361 144.052976 109.390275 147.521135 109.390275 
z
" clip-path="url(#pa3f165a2d6)" style="stroke: #000000; stroke-linejoin: miter"/>
   </g>
   <g id="patch_47">
    <path d="M 111.195099 225.633592 
C 112.736503 225.633592 114.214983 225.021185 115.304921 223.931248 
C 116.394858 222.84131 117.007265 221.36283 117.007265 219.821426 
C 117.007265 218.280022 116.394858 216.801542 115.304921 215.711604 
C 114.214983 214.621667 112.736503 214.00926 111.195099 214.00926 
C 109.653695 214.00926 108.175215 214.621667 107.085277 215.711604 
C 105.99534 216.801542 105.382933 218.280022 105.382933 219.821426 
C 105.382933 221.36283 105.99534 222.84131 107.085277 223.931248 
C 108.175215 225.021185 109.653695 225.633592 111.195099 225.633592 
z
" clip-path="url(#pa3f165a2d6)" style="stroke: #000000; stroke-linejoin: miter"/>
   </g>
   <g id="patch_48">
    <path d="M 125.725514 203.83797 
C 127.266918 203.83797 128.745398 203.225564 129.835335 202.135626 
C 130.925273 201.045689 131.537679 199.567209 131.537679 198.025804 
C 131.537679 196.4844 130.925273 195.00592 129.835335 193.915982 
C 128.745398 192.826045 127.266918 192.213638 125.725514 192.213638 
C 124.184109 192.213638 122.705629 192.826045 121.615692 193.915982 
C 120.525754 195.00592 119.913348 196.4844 119.913348 198.025804 
C 119.913348 199.567209 120.525754 201.045689 121.615692 202.135626 
C 122.705629 203.225564 124.184109 203.83797 125.725514 203.83797 
z
" clip-path="url(#pa3f165a2d6)" style="stroke: #000000; stroke-linejoin: miter"/>
   </g>
   <g id="patch_49">
    <path d="M 147.521135 312.816079 
C 149.06254 312.816079 150.54102 312.203673 151.630957 311.113735 
C 152.720895 310.023798 153.333301 308.545318 153.333301 307.003914 
C 153.333301 305.462509 152.720895 303.984029 151.630957 302.894092 
C 150.54102 301.804154 149.06254 301.191748 147.521135 301.191748 
C 145.979731 301.191748 144.501251 301.804154 143.411314 302.894092 
C 142.321376 303.984029 141.70897 305.462509 141.70897 307.003914 
C 141.70897 308.545318 142.321376 310.023798 143.411314 311.113735 
C 144.501251 312.203673 145.979731 312.816079 147.521135 312.816079 
z
" clip-path="url(#pa3f165a2d6)" style="stroke: #000000; stroke-linejoin: miter"/>
   </g>
   <g id="patch_50">
    <path d="M 132.990721 291.020457 
C 134.532125 291.020457 136.010605 290.408051 137.100543 289.318114 
C 138.19048 288.228176 138.802887 286.749696 138.802887 285.208292 
C 138.802887 283.666887 138.19048 282.188407 137.100543 281.09847 
C 136.010605 280.008532 134.532125 279.396126 132.990721 279.396126 
C 131.449316 279.396126 129.970836 280.008532 128.880899 281.09847 
C 127.790961 282.188407 127.178555 283.666887 127.178555 285.208292 
C 127.178555 286.749696 127.790961 288.228176 128.880899 289.318114 
C 129.970836 290.408051 131.449316 291.020457 132.990721 291.020457 
z
" clip-path="url(#pa3f165a2d6)" style="stroke: #000000; stroke-linejoin: miter"/>
   </g>
   <g id="patch_51">
    <path d="M 74.869063 260.506587 
C 76.025116 260.506587 77.133976 260.047282 77.951429 259.229829 
C 78.768882 258.412376 79.228187 257.303516 79.228187 256.147462 
C 79.228187 254.991409 78.768882 253.882549 77.951429 253.065096 
C 77.133976 252.247643 76.025116 251.788338 74.869063 251.788338 
C 73.713009 251.788338 72.604149 252.247643 71.786696 253.065096 
C 70.969243 253.882549 70.509938 254.991409 70.509938 256.147462 
C 70.509938 257.303516 70.969243 258.412376 71.786696 259.229829 
C 72.604149 260.047282 73.713009 260.506587 74.869063 260.506587 
z
" clip-path="url(#pa3f165a2d6)" style="fill: #0000ff; stroke: #0000ff; stroke-linejoin: miter"/>
   </g>
   <g id="patch_52">
    <path d="M 510.7815 260.506587 
C 511.937553 260.506587 513.046413 260.047282 513.863866 259.229829 
C 514.68132 258.412376 515.140624 257.303516 515.140624 256.147462 
C 515.140624 254.991409 514.68132 253.882549 513.863866 253.065096 
C 513.046413 252.247643 511.937553 251.788338 510.7815 251.788338 
C 509.625447 251.788338 508.516587 252.247643 507.699134 253.065096 
C 506.88168 253.882549 506.422376 254.991409 506.422376 256.147462 
C 506.422376 257.303516 506.88168 258.412376 507.699134 259.229829 
C 508.516587 260.047282 509.625447 260.506587 510.7815 260.506587 
z
" clip-path="url(#pa3f165a2d6)" style="fill: #ff0000; stroke: #ff0000; stroke-linejoin: miter"/>
   </g>
   <g id="matplotlib.axis_1">
    <g id="xtick_1">
     <g id="line2d_1">
      <defs>
       <path id="m73fce780ca" d="M 0 0 
L 0 3.5 
" style="stroke: #000000; stroke-width: 0.8"/>
      </defs>
      <g>
       <use xlink:href="#m73fce780ca" x="74.869063" y="474.103681" style="stroke: #000000; stroke-width: 0.8"/>
      </g>
     </g>
     <g id="text_1">
      <!-- 0 -->
      <g transform="translate(69.469063 496.102181)scale(0.216 -0.216)">
       <defs>
        <path id="TimesNewRomanPSMT-30" d="M 231 2094 
Q 231 2819 450 3342 
Q 669 3866 1031 4122 
Q 1313 4325 1613 4325 
Q 2100 4325 2488 3828 
Q 2972 3213 2972 2159 
Q 2972 1422 2759 906 
Q 2547 391 2217 158 
Q 1888 -75 1581 -75 
Q 975 -75 572 641 
Q 231 1244 231 2094 
z
M 844 2016 
Q 844 1141 1059 588 
Q 1238 122 1591 122 
Q 1759 122 1940 273 
Q 2122 425 2216 781 
Q 2359 1319 2359 2297 
Q 2359 3022 2209 3506 
Q 2097 3866 1919 4016 
Q 1791 4119 1609 4119 
Q 1397 4119 1231 3928 
Q 1006 3669 925 3112 
Q 844 2556 844 2016 
z
" transform="scale(0.015625)"/>
       </defs>
       <use xlink:href="#TimesNewRomanPSMT-30"/>
      </g>
     </g>
    </g>
    <g id="xtick_2">
     <g id="line2d_2">
      <g>
       <use xlink:href="#m73fce780ca" x="147.521135" y="474.103681" style="stroke: #000000; stroke-width: 0.8"/>
      </g>
     </g>
     <g id="text_2">
      <!-- 5 -->
      <g transform="translate(142.121135 496.102181)scale(0.216 -0.216)">
       <defs>
        <path id="TimesNewRomanPSMT-35" d="M 2778 4238 
L 2534 3706 
L 1259 3706 
L 981 3138 
Q 1809 3016 2294 2522 
Q 2709 2097 2709 1522 
Q 2709 1188 2573 903 
Q 2438 619 2231 419 
Q 2025 219 1772 97 
Q 1413 -75 1034 -75 
Q 653 -75 479 54 
Q 306 184 306 341 
Q 306 428 378 495 
Q 450 563 559 563 
Q 641 563 702 538 
Q 763 513 909 409 
Q 1144 247 1384 247 
Q 1750 247 2026 523 
Q 2303 800 2303 1197 
Q 2303 1581 2056 1914 
Q 1809 2247 1375 2428 
Q 1034 2569 447 2591 
L 1259 4238 
L 2778 4238 
z
" transform="scale(0.015625)"/>
       </defs>
       <use xlink:href="#TimesNewRomanPSMT-35"/>
      </g>
     </g>
    </g>
    <g id="xtick_3">
     <g id="line2d_3">
      <g>
       <use xlink:href="#m73fce780ca" x="220.173208" y="474.103681" style="stroke: #000000; stroke-width: 0.8"/>
      </g>
     </g>
     <g id="text_3">
      <!-- 10 -->
      <g transform="translate(209.373208 496.102181)scale(0.216 -0.216)">
       <defs>
        <path id="TimesNewRomanPSMT-31" d="M 750 3822 
L 1781 4325 
L 1884 4325 
L 1884 747 
Q 1884 391 1914 303 
Q 1944 216 2037 169 
Q 2131 122 2419 116 
L 2419 0 
L 825 0 
L 825 116 
Q 1125 122 1212 167 
Q 1300 213 1334 289 
Q 1369 366 1369 747 
L 1369 3034 
Q 1369 3497 1338 3628 
Q 1316 3728 1258 3775 
Q 1200 3822 1119 3822 
Q 1003 3822 797 3725 
L 750 3822 
z
" transform="scale(0.015625)"/>
       </defs>
       <use xlink:href="#TimesNewRomanPSMT-31"/>
       <use xlink:href="#TimesNewRomanPSMT-30" x="50"/>
      </g>
     </g>
    </g>
    <g id="xtick_4">
     <g id="line2d_4">
      <g>
       <use xlink:href="#m73fce780ca" x="292.825281" y="474.103681" style="stroke: #000000; stroke-width: 0.8"/>
      </g>
     </g>
     <g id="text_4">
      <!-- 15 -->
      <g transform="translate(282.025281 496.102181)scale(0.216 -0.216)">
       <use xlink:href="#TimesNewRomanPSMT-31"/>
       <use xlink:href="#TimesNewRomanPSMT-35" x="50"/>
      </g>
     </g>
    </g>
    <g id="xtick_5">
     <g id="line2d_5">
      <g>
       <use xlink:href="#m73fce780ca" x="365.477354" y="474.103681" style="stroke: #000000; stroke-width: 0.8"/>
      </g>
     </g>
     <g id="text_5">
      <!-- 20 -->
      <g transform="translate(354.677354 496.102181)scale(0.216 -0.216)">
       <defs>
        <path id="TimesNewRomanPSMT-32" d="M 2934 816 
L 2638 0 
L 138 0 
L 138 116 
Q 1241 1122 1691 1759 
Q 2141 2397 2141 2925 
Q 2141 3328 1894 3587 
Q 1647 3847 1303 3847 
Q 991 3847 742 3664 
Q 494 3481 375 3128 
L 259 3128 
Q 338 3706 661 4015 
Q 984 4325 1469 4325 
Q 1984 4325 2329 3994 
Q 2675 3663 2675 3213 
Q 2675 2891 2525 2569 
Q 2294 2063 1775 1497 
Q 997 647 803 472 
L 1909 472 
Q 2247 472 2383 497 
Q 2519 522 2628 598 
Q 2738 675 2819 816 
L 2934 816 
z
" transform="scale(0.015625)"/>
       </defs>
       <use xlink:href="#TimesNewRomanPSMT-32"/>
       <use xlink:href="#TimesNewRomanPSMT-30" x="50"/>
      </g>
     </g>
    </g>
    <g id="xtick_6">
     <g id="line2d_6">
      <g>
       <use xlink:href="#m73fce780ca" x="438.129427" y="474.103681" style="stroke: #000000; stroke-width: 0.8"/>
      </g>
     </g>
     <g id="text_6">
      <!-- 25 -->
      <g transform="translate(427.329427 496.102181)scale(0.216 -0.216)">
       <use xlink:href="#TimesNewRomanPSMT-32"/>
       <use xlink:href="#TimesNewRomanPSMT-35" x="50"/>
      </g>
     </g>
    </g>
    <g id="xtick_7">
     <g id="line2d_7">
      <g>
       <use xlink:href="#m73fce780ca" x="510.7815" y="474.103681" style="stroke: #000000; stroke-width: 0.8"/>
      </g>
     </g>
     <g id="text_7">
      <!-- 30 -->
      <g transform="translate(499.9815 496.102181)scale(0.216 -0.216)">
       <defs>
        <path id="TimesNewRomanPSMT-33" d="M 325 3431 
Q 506 3859 782 4092 
Q 1059 4325 1472 4325 
Q 1981 4325 2253 3994 
Q 2459 3747 2459 3466 
Q 2459 3003 1878 2509 
Q 2269 2356 2469 2072 
Q 2669 1788 2669 1403 
Q 2669 853 2319 450 
Q 1863 -75 997 -75 
Q 569 -75 414 31 
Q 259 138 259 259 
Q 259 350 332 419 
Q 406 488 509 488 
Q 588 488 669 463 
Q 722 447 909 348 
Q 1097 250 1169 231 
Q 1284 197 1416 197 
Q 1734 197 1970 444 
Q 2206 691 2206 1028 
Q 2206 1275 2097 1509 
Q 2016 1684 1919 1775 
Q 1784 1900 1550 2001 
Q 1316 2103 1072 2103 
L 972 2103 
L 972 2197 
Q 1219 2228 1467 2375 
Q 1716 2522 1828 2728 
Q 1941 2934 1941 3181 
Q 1941 3503 1739 3701 
Q 1538 3900 1238 3900 
Q 753 3900 428 3381 
L 325 3431 
z
" transform="scale(0.015625)"/>
       </defs>
       <use xlink:href="#TimesNewRomanPSMT-33"/>
       <use xlink:href="#TimesNewRomanPSMT-30" x="50"/>
      </g>
     </g>
    </g>
    <g id="text_8">
     <!-- x -->
     <g transform="translate(286.525281 522.220806)scale(0.252 -0.252)">
      <defs>
       <path id="TimesNewRomanPSMT-78" d="M 84 2863 
L 1431 2863 
L 1431 2747 
Q 1303 2747 1251 2703 
Q 1200 2659 1200 2588 
Q 1200 2513 1309 2356 
Q 1344 2306 1413 2200 
L 1616 1875 
L 1850 2200 
Q 2075 2509 2075 2591 
Q 2075 2656 2022 2701 
Q 1969 2747 1850 2747 
L 1850 2863 
L 2819 2863 
L 2819 2747 
Q 2666 2738 2553 2663 
Q 2400 2556 2134 2200 
L 1744 1678 
L 2456 653 
Q 2719 275 2831 198 
Q 2944 122 3122 113 
L 3122 0 
L 1772 0 
L 1772 113 
Q 1913 113 1991 175 
Q 2050 219 2050 291 
Q 2050 363 1850 653 
L 1431 1266 
L 972 653 
Q 759 369 759 316 
Q 759 241 829 180 
Q 900 119 1041 113 
L 1041 0 
L 106 0 
L 106 113 
Q 219 128 303 191 
Q 422 281 703 653 
L 1303 1450 
L 759 2238 
Q 528 2575 401 2661 
Q 275 2747 84 2747 
L 84 2863 
z
" transform="scale(0.015625)"/>
      </defs>
      <use xlink:href="#TimesNewRomanPSMT-78"/>
     </g>
    </g>
   </g>
   <g id="matplotlib.axis_2">
    <g id="ytick_1">
     <g id="line2d_8">
      <defs>
       <path id="me8a3be0c2d" d="M 0 0 
L -3.5 0 
" style="stroke: #000000; stroke-width: 0.8"/>
      </defs>
      <g>
       <use xlink:href="#me8a3be0c2d" x="74.869063" y="474.103681" style="stroke: #000000; stroke-width: 0.8"/>
      </g>
     </g>
     <g id="text_9">
      <!-- −15 -->
      <g transform="translate(34.088688 481.602931)scale(0.216 -0.216)">
       <defs>
        <path id="TimesNewRomanPSMT-2212" d="M 3484 2000 
L 116 2000 
L 116 2256 
L 3484 2256 
L 3484 2000 
z
" transform="scale(0.015625)"/>
       </defs>
       <use xlink:href="#TimesNewRomanPSMT-2212"/>
       <use xlink:href="#TimesNewRomanPSMT-31" x="56.396484"/>
       <use xlink:href="#TimesNewRomanPSMT-35" x="106.396484"/>
      </g>
     </g>
    </g>
    <g id="ytick_2">
     <g id="line2d_9">
      <g>
       <use xlink:href="#me8a3be0c2d" x="74.869063" y="401.451608" style="stroke: #000000; stroke-width: 0.8"/>
      </g>
     </g>
     <g id="text_10">
      <!-- −10 -->
      <g transform="translate(34.088688 408.950858)scale(0.216 -0.216)">
       <use xlink:href="#TimesNewRomanPSMT-2212"/>
       <use xlink:href="#TimesNewRomanPSMT-31" x="56.396484"/>
       <use xlink:href="#TimesNewRomanPSMT-30" x="106.396484"/>
      </g>
     </g>
    </g>
    <g id="ytick_3">
     <g id="line2d_10">
      <g>
       <use xlink:href="#me8a3be0c2d" x="74.869063" y="328.799535" style="stroke: #000000; stroke-width: 0.8"/>
      </g>
     </g>
     <g id="text_11">
      <!-- −5 -->
      <g transform="translate(44.888688 336.298785)scale(0.216 -0.216)">
       <use xlink:href="#TimesNewRomanPSMT-2212"/>
       <use xlink:href="#TimesNewRomanPSMT-35" x="56.396484"/>
      </g>
     </g>
    </g>
    <g id="ytick_4">
     <g id="line2d_11">
      <g>
       <use xlink:href="#me8a3be0c2d" x="74.869063" y="256.147462" style="stroke: #000000; stroke-width: 0.8"/>
      </g>
     </g>
     <g id="text_12">
      <!-- 0 -->
      <g transform="translate(57.069063 263.646712)scale(0.216 -0.216)">
       <use xlink:href="#TimesNewRomanPSMT-30"/>
      </g>
     </g>
    </g>
    <g id="ytick_5">
     <g id="line2d_12">
      <g>
       <use xlink:href="#me8a3be0c2d" x="74.869063" y="183.49539" style="stroke: #000000; stroke-width: 0.8"/>
      </g>
     </g>
     <g id="text_13">
      <!-- 5 -->
      <g transform="translate(57.069063 190.99464)scale(0.216 -0.216)">
       <use xlink:href="#TimesNewRomanPSMT-35"/>
      </g>
     </g>
    </g>
    <g id="ytick_6">
     <g id="line2d_13">
      <g>
       <use xlink:href="#me8a3be0c2d" x="74.869063" y="110.843317" style="stroke: #000000; stroke-width: 0.8"/>
      </g>
     </g>
     <g id="text_14">
      <!-- 10 -->
      <g transform="translate(46.269063 118.342567)scale(0.216 -0.216)">
       <use xlink:href="#TimesNewRomanPSMT-31"/>
       <use xlink:href="#TimesNewRomanPSMT-30" x="50"/>
      </g>
     </g>
    </g>
    <g id="ytick_7">
     <g id="line2d_14">
      <g>
       <use xlink:href="#me8a3be0c2d" x="74.869063" y="38.191244" style="stroke: #000000; stroke-width: 0.8"/>
      </g>
     </g>
     <g id="text_15">
      <!-- 15 -->
      <g transform="translate(46.269063 45.690494)scale(0.216 -0.216)">
       <use xlink:href="#TimesNewRomanPSMT-31"/>
       <use xlink:href="#TimesNewRomanPSMT-35" x="50"/>
      </g>
     </g>
    </g>
    <g id="text_16">
     <!-- y -->
     <g transform="translate(24.651 262.447462)rotate(-90)scale(0.252 -0.252)">
      <defs>
       <path id="TimesNewRomanPSMT-79" d="M 38 2863 
L 1372 2863 
L 1372 2747 
L 1306 2747 
Q 1166 2747 1095 2686 
Q 1025 2625 1025 2534 
Q 1025 2413 1128 2197 
L 1825 753 
L 2466 2334 
Q 2519 2463 2519 2588 
Q 2519 2644 2497 2672 
Q 2472 2706 2419 2726 
Q 2366 2747 2231 2747 
L 2231 2863 
L 3163 2863 
L 3163 2747 
Q 3047 2734 2984 2696 
Q 2922 2659 2847 2556 
Q 2819 2513 2741 2316 
L 1575 -541 
Q 1406 -956 1132 -1168 
Q 859 -1381 606 -1381 
Q 422 -1381 303 -1275 
Q 184 -1169 184 -1031 
Q 184 -900 270 -820 
Q 356 -741 506 -741 
Q 609 -741 788 -809 
Q 913 -856 944 -856 
Q 1038 -856 1148 -759 
Q 1259 -663 1372 -384 
L 1575 113 
L 547 2272 
Q 500 2369 397 2513 
Q 319 2622 269 2659 
Q 197 2709 38 2747 
L 38 2863 
z
" transform="scale(0.015625)"/>
      </defs>
      <use xlink:href="#TimesNewRomanPSMT-79"/>
     </g>
    </g>
   </g>
   <g id="line2d_15">
    <path d="M 74.869063 256.147462 
L 89.900526 249.066681 
L 104.931989 241.985639 
L 119.963453 240.987942 
L 134.994916 242.550904 
L 150.026379 244.116656 
L 165.057843 245.689594 
L 180.089306 247.259783 
L 195.120769 248.830028 
L 210.152233 252.398882 
L 225.183696 257.19619 
L 240.215159 261.993132 
L 255.246623 265.13647 
L 270.278086 267.579815 
L 285.30955 270.021857 
L 300.341013 272.553285 
L 315.372476 275.259826 
L 330.40394 277.970558 
L 345.435403 280.683217 
L 360.466866 283.397809 
L 375.49833 286.111062 
L 390.529793 283.965759 
L 405.561256 274.337361 
L 420.59272 264.697729 
L 435.624183 255.050337 
L 450.655647 245.400342 
L 465.68711 240.834473 
L 480.718573 243.657213 
L 495.750037 249.903747 
L 510.7815 256.147462 
" clip-path="url(#pa3f165a2d6)" style="fill: none; stroke: #ff0000; stroke-width: 1.5; stroke-linecap: square"/>
    <defs>
     <path id="m50cfa10738" d="M 0 1 
C 0.265203 1 0.51958 0.894634 0.707107 0.707107 
C 0.894634 0.51958 1 0.265203 1 0 
C 1 -0.265203 0.894634 -0.51958 0.707107 -0.707107 
C 0.51958 -0.894634 0.265203 -1 0 -1 
C -0.265203 -1 -0.51958 -0.894634 -0.707107 -0.707107 
C -0.894634 -0.51958 -1 -0.265203 -1 0 
C -1 0.265203 -0.894634 0.51958 -0.707107 0.707107 
C -0.51958 0.894634 -0.265203 1 0 1 
z
" style="stroke: #ff0000"/>
    </defs>
    <g clip-path="url(#pa3f165a2d6)">
     <use xlink:href="#m50cfa10738" x="74.869063" y="256.147462" style="fill: #ff0000; stroke: #ff0000"/>
     <use xlink:href="#m50cfa10738" x="89.900526" y="249.066681" style="fill: #ff0000; stroke: #ff0000"/>
     <use xlink:href="#m50cfa10738" x="104.931989" y="241.985639" style="fill: #ff0000; stroke: #ff0000"/>
     <use xlink:href="#m50cfa10738" x="119.963453" y="240.987942" style="fill: #ff0000; stroke: #ff0000"/>
     <use xlink:href="#m50cfa10738" x="134.994916" y="242.550904" style="fill: #ff0000; stroke: #ff0000"/>
     <use xlink:href="#m50cfa10738" x="150.026379" y="244.116656" style="fill: #ff0000; stroke: #ff0000"/>
     <use xlink:href="#m50cfa10738" x="165.057843" y="245.689594" style="fill: #ff0000; stroke: #ff0000"/>
     <use xlink:href="#m50cfa10738" x="180.089306" y="247.259783" style="fill: #ff0000; stroke: #ff0000"/>
     <use xlink:href="#m50cfa10738" x="195.120769" y="248.830028" style="fill: #ff0000; stroke: #ff0000"/>
     <use xlink:href="#m50cfa10738" x="210.152233" y="252.398882" style="fill: #ff0000; stroke: #ff0000"/>
     <use xlink:href="#m50cfa10738" x="225.183696" y="257.19619" style="fill: #ff0000; stroke: #ff0000"/>
     <use xlink:href="#m50cfa10738" x="240.215159" y="261.993132" style="fill: #ff0000; stroke: #ff0000"/>
     <use xlink:href="#m50cfa10738" x="255.246623" y="265.13647" style="fill: #ff0000; stroke: #ff0000"/>
     <use xlink:href="#m50cfa10738" x="270.278086" y="267.579815" style="fill: #ff0000; stroke: #ff0000"/>
     <use xlink:href="#m50cfa10738" x="285.30955" y="270.021857" style="fill: #ff0000; stroke: #ff0000"/>
     <use xlink:href="#m50cfa10738" x="300.341013" y="272.553285" style="fill: #ff0000; stroke: #ff0000"/>
     <use xlink:href="#m50cfa10738" x="315.372476" y="275.259826" style="fill: #ff0000; stroke: #ff0000"/>
     <use xlink:href="#m50cfa10738" x="330.40394" y="277.970558" style="fill: #ff0000; stroke: #ff0000"/>
     <use xlink:href="#m50cfa10738" x="345.435403" y="280.683217" style="fill: #ff0000; stroke: #ff0000"/>
     <use xlink:href="#m50cfa10738" x="360.466866" y="283.397809" style="fill: #ff0000; stroke: #ff0000"/>
     <use xlink:href="#m50cfa10738" x="375.49833" y="286.111062" style="fill: #ff0000; stroke: #ff0000"/>
     <use xlink:href="#m50cfa10738" x="390.529793" y="283.965759" style="fill: #ff0000; stroke: #ff0000"/>
     <use xlink:href="#m50cfa10738" x="405.561256" y="274.337361" style="fill: #ff0000; stroke: #ff0000"/>
     <use xlink:href="#m50cfa10738" x="420.59272" y="264.697729" style="fill: #ff0000; stroke: #ff0000"/>
     <use xlink:href="#m50cfa10738" x="435.624183" y="255.050337" style="fill: #ff0000; stroke: #ff0000"/>
     <use xlink:href="#m50cfa10738" x="450.655647" y="245.400342" style="fill: #ff0000; stroke: #ff0000"/>
     <use xlink:href="#m50cfa10738" x="465.68711" y="240.834473" style="fill: #ff0000; stroke: #ff0000"/>
     <use xlink:href="#m50cfa10738" x="480.718573" y="243.657213" style="fill: #ff0000; stroke: #ff0000"/>
     <use xlink:href="#m50cfa10738" x="495.750037" y="249.903747" style="fill: #ff0000; stroke: #ff0000"/>
     <use xlink:href="#m50cfa10738" x="510.7815" y="256.147462" style="fill: #ff0000; stroke: #ff0000"/>
    </g>
   </g>
   <g id="patch_53">
    <path d="M 74.869063 474.103681 
L 74.869063 38.191244 
" style="fill: none; stroke: #000000; stroke-width: 0.8; stroke-linejoin: miter; stroke-linecap: square"/>
   </g>
   <g id="patch_54">
    <path d="M 510.7815 474.103681 
L 510.7815 38.191244 
" style="fill: none; stroke: #000000; stroke-width: 0.8; stroke-linejoin: miter; stroke-linecap: square"/>
   </g>
   <g id="patch_55">
    <path d="M 74.869063 474.103681 
L 510.7815 474.103681 
" style="fill: none; stroke: #000000; stroke-width: 0.8; stroke-linejoin: miter; stroke-linecap: square"/>
   </g>
   <g id="patch_56">
    <path d="M 74.869063 38.191244 
L 510.7815 38.191244 
" style="fill: none; stroke: #000000; stroke-width: 0.8; stroke-linejoin: miter; stroke-linecap: square"/>
   </g>
   <g id="text_17">
    <!-- 1 -->
    <g style="fill: #ffffff" transform="translate(108.695099 331.201879)scale(0.1 -0.1)">
     <use xlink:href="#TimesNewRomanPSMT-31"/>
    </g>
   </g>
   <g id="text_18">
    <!-- 2 -->
    <g style="fill: #ffffff" transform="translate(123.225514 149.571697)scale(0.1 -0.1)">
     <use xlink:href="#TimesNewRomanPSMT-32"/>
    </g>
   </g>
   <g id="text_19">
    <!-- 3 -->
    <g style="fill: #ffffff" transform="translate(108.695099 265.815014)scale(0.1 -0.1)">
     <use xlink:href="#TimesNewRomanPSMT-33"/>
    </g>
   </g>
   <g id="text_20">
    <!-- 4 -->
    <g style="fill: #ffffff" transform="translate(159.55155 214.958562)scale(0.1 -0.1)">
     <defs>
      <path id="TimesNewRomanPSMT-34" d="M 2978 1563 
L 2978 1119 
L 2409 1119 
L 2409 0 
L 1894 0 
L 1894 1119 
L 100 1119 
L 100 1519 
L 2066 4325 
L 2409 4325 
L 2409 1563 
L 2978 1563 
z
M 1894 1563 
L 1894 3666 
L 406 1563 
L 1894 1563 
z
" transform="scale(0.015625)"/>
     </defs>
     <use xlink:href="#TimesNewRomanPSMT-34"/>
    </g>
   </g>
   <g id="text_21">
    <!-- 5 -->
    <g style="fill: #ffffff" transform="translate(166.816757 374.793123)scale(0.1 -0.1)">
     <use xlink:href="#TimesNewRomanPSMT-35"/>
    </g>
   </g>
   <g id="text_22">
    <!-- 6 -->
    <g style="fill: #ffffff" transform="translate(174.081965 164.102111)scale(0.1 -0.1)">
     <defs>
      <path id="TimesNewRomanPSMT-36" d="M 2869 4325 
L 2869 4209 
Q 2456 4169 2195 4045 
Q 1934 3922 1679 3669 
Q 1425 3416 1258 3105 
Q 1091 2794 978 2366 
Q 1428 2675 1881 2675 
Q 2316 2675 2634 2325 
Q 2953 1975 2953 1425 
Q 2953 894 2631 456 
Q 2244 -75 1606 -75 
Q 1172 -75 869 213 
Q 275 772 275 1663 
Q 275 2231 503 2743 
Q 731 3256 1154 3653 
Q 1578 4050 1965 4187 
Q 2353 4325 2688 4325 
L 2869 4325 
z
M 925 2138 
Q 869 1716 869 1456 
Q 869 1156 980 804 
Q 1091 453 1309 247 
Q 1469 100 1697 100 
Q 1969 100 2183 356 
Q 2397 613 2397 1088 
Q 2397 1622 2184 2012 
Q 1972 2403 1581 2403 
Q 1463 2403 1327 2353 
Q 1191 2303 925 2138 
z
" transform="scale(0.015625)"/>
     </defs>
     <use xlink:href="#TimesNewRomanPSMT-36"/>
    </g>
   </g>
   <g id="text_23">
    <!-- 7 -->
    <g style="fill: #ffffff" transform="translate(188.612379 287.610635)scale(0.1 -0.1)">
     <defs>
      <path id="TimesNewRomanPSMT-37" d="M 644 4238 
L 2916 4238 
L 2916 4119 
L 1503 -88 
L 1153 -88 
L 2419 3728 
L 1253 3728 
Q 900 3728 750 3644 
Q 488 3500 328 3200 
L 238 3234 
L 644 4238 
z
" transform="scale(0.015625)"/>
     </defs>
     <use xlink:href="#TimesNewRomanPSMT-37"/>
    </g>
   </g>
   <g id="text_24">
    <!-- 8 -->
    <g style="fill: #ffffff" transform="translate(246.734037 244.019392)scale(0.1 -0.1)">
     <defs>
      <path id="TimesNewRomanPSMT-38" d="M 1228 2134 
Q 725 2547 579 2797 
Q 434 3047 434 3316 
Q 434 3728 753 4026 
Q 1072 4325 1600 4325 
Q 2113 4325 2425 4047 
Q 2738 3769 2738 3413 
Q 2738 3175 2569 2928 
Q 2400 2681 1866 2347 
Q 2416 1922 2594 1678 
Q 2831 1359 2831 1006 
Q 2831 559 2490 242 
Q 2150 -75 1597 -75 
Q 994 -75 656 303 
Q 388 606 388 966 
Q 388 1247 577 1523 
Q 766 1800 1228 2134 
z
M 1719 2469 
Q 2094 2806 2194 3001 
Q 2294 3197 2294 3444 
Q 2294 3772 2109 3958 
Q 1925 4144 1606 4144 
Q 1288 4144 1088 3959 
Q 888 3775 888 3528 
Q 888 3366 970 3203 
Q 1053 3041 1206 2894 
L 1719 2469 
z
M 1375 2016 
Q 1116 1797 991 1539 
Q 866 1281 866 981 
Q 866 578 1086 336 
Q 1306 94 1647 94 
Q 1984 94 2187 284 
Q 2391 475 2391 747 
Q 2391 972 2272 1150 
Q 2050 1481 1375 2016 
z
" transform="scale(0.015625)"/>
     </defs>
     <use xlink:href="#TimesNewRomanPSMT-38"/>
    </g>
   </g>
   <g id="text_25">
    <!-- 9 -->
    <g style="fill: #ffffff" transform="translate(275.794867 200.428148)scale(0.1 -0.1)">
     <defs>
      <path id="TimesNewRomanPSMT-39" d="M 338 -88 
L 338 28 
Q 744 34 1094 217 
Q 1444 400 1770 856 
Q 2097 1313 2225 1859 
Q 1734 1544 1338 1544 
Q 891 1544 572 1889 
Q 253 2234 253 2806 
Q 253 3363 572 3797 
Q 956 4325 1575 4325 
Q 2097 4325 2469 3894 
Q 2925 3359 2925 2575 
Q 2925 1869 2578 1258 
Q 2231 647 1613 244 
Q 1109 -88 516 -88 
L 338 -88 
z
M 2275 2091 
Q 2331 2497 2331 2741 
Q 2331 3044 2228 3395 
Q 2125 3747 1936 3934 
Q 1747 4122 1506 4122 
Q 1228 4122 1018 3872 
Q 809 3622 809 3128 
Q 809 2469 1088 2097 
Q 1291 1828 1588 1828 
Q 1731 1828 1928 1897 
Q 2125 1966 2275 2091 
z
" transform="scale(0.015625)"/>
     </defs>
     <use xlink:href="#TimesNewRomanPSMT-39"/>
    </g>
   </g>
   <g id="text_26">
    <!-- 10 -->
    <g style="fill: #ffffff" transform="translate(280.560074 316.671465)scale(0.1 -0.1)">
     <use xlink:href="#TimesNewRomanPSMT-31"/>
     <use xlink:href="#TimesNewRomanPSMT-30" x="50"/>
    </g>
   </g>
   <g id="text_27">
    <!-- 11 -->
    <g style="fill: #ffffff" transform="translate(288.012781 113.24566)scale(0.1 -0.1)">
     <use xlink:href="#TimesNewRomanPSMT-31"/>
     <use xlink:href="#TimesNewRomanPSMT-31" x="46.25"/>
    </g>
   </g>
   <g id="text_28">
    <!-- 12 -->
    <g style="fill: #ffffff" transform="translate(375.007769 258.549806)scale(0.1 -0.1)">
     <use xlink:href="#TimesNewRomanPSMT-31"/>
     <use xlink:href="#TimesNewRomanPSMT-32" x="50"/>
    </g>
   </g>
   <g id="text_29">
    <!-- 13 -->
    <g style="fill: #ffffff" transform="translate(396.803391 309.406257)scale(0.1 -0.1)">
     <use xlink:href="#TimesNewRomanPSMT-31"/>
     <use xlink:href="#TimesNewRomanPSMT-33" x="50"/>
    </g>
   </g>
   <g id="text_30">
    <!-- 14 -->
    <g style="fill: #ffffff" transform="translate(404.068598 214.958562)scale(0.1 -0.1)">
     <use xlink:href="#TimesNewRomanPSMT-31"/>
     <use xlink:href="#TimesNewRomanPSMT-34" x="50"/>
    </g>
   </g>
   <g id="text_31">
    <!-- 15 -->
    <g style="fill: #ffffff" transform="translate(462.190256 273.080221)scale(0.1 -0.1)">
     <use xlink:href="#TimesNewRomanPSMT-31"/>
     <use xlink:href="#TimesNewRomanPSMT-35" x="50"/>
    </g>
   </g>
   <g id="text_32">
    <!-- 16 -->
    <g style="fill: #ffffff" transform="translate(345.94694 185.897733)scale(0.1 -0.1)">
     <use xlink:href="#TimesNewRomanPSMT-31"/>
     <use xlink:href="#TimesNewRomanPSMT-36" x="50"/>
    </g>
   </g>
   <g id="text_33">
    <!-- 17 -->
    <g style="fill: #ffffff" transform="translate(360.477354 331.201879)scale(0.1 -0.1)">
     <use xlink:href="#TimesNewRomanPSMT-31"/>
     <use xlink:href="#TimesNewRomanPSMT-37" x="50"/>
    </g>
   </g>
   <g id="text_34">
    <!-- 18 -->
    <g style="fill: #ffffff" transform="translate(462.190256 149.571697)scale(0.1 -0.1)">
     <use xlink:href="#TimesNewRomanPSMT-31"/>
     <use xlink:href="#TimesNewRomanPSMT-38" x="50"/>
    </g>
   </g>
   <g id="text_35">
    <!-- 19 -->
    <g style="fill: #ffffff" transform="translate(433.129427 345.732294)scale(0.1 -0.1)">
     <use xlink:href="#TimesNewRomanPSMT-31"/>
     <use xlink:href="#TimesNewRomanPSMT-39" x="50"/>
    </g>
   </g>
   <g id="text_36">
    <!-- 20 -->
    <g style="fill: #ffffff" transform="translate(316.88611 222.22377)scale(0.1 -0.1)">
     <use xlink:href="#TimesNewRomanPSMT-32"/>
     <use xlink:href="#TimesNewRomanPSMT-30" x="50"/>
    </g>
   </g>
   <g id="text_37">
    <!-- 21 -->
    <g style="fill: #ffffff" transform="translate(244.234037 142.30649)scale(0.1 -0.1)">
     <use xlink:href="#TimesNewRomanPSMT-32"/>
     <use xlink:href="#TimesNewRomanPSMT-31" x="50"/>
    </g>
   </g>
   <g id="text_38">
    <!-- 22 -->
    <g style="fill: #ffffff" transform="translate(229.703623 178.632526)scale(0.1 -0.1)">
     <use xlink:href="#TimesNewRomanPSMT-32"/>
     <use xlink:href="#TimesNewRomanPSMT-32" x="50"/>
    </g>
   </g>
   <g id="text_39">
    <!-- 23 -->
    <g style="fill: #ffffff" transform="translate(360.477354 367.527916)scale(0.1 -0.1)">
     <use xlink:href="#TimesNewRomanPSMT-32"/>
     <use xlink:href="#TimesNewRomanPSMT-33" x="50"/>
    </g>
   </g>
   <g id="text_40">
    <!-- 24 -->
    <g style="fill: #ffffff" transform="translate(229.703623 382.05833)scale(0.1 -0.1)">
     <use xlink:href="#TimesNewRomanPSMT-32"/>
     <use xlink:href="#TimesNewRomanPSMT-34" x="50"/>
    </g>
   </g>
   <g id="text_41">
    <!-- 25 -->
    <g style="fill: #ffffff" transform="translate(258.764452 389.323537)scale(0.1 -0.1)">
     <use xlink:href="#TimesNewRomanPSMT-32"/>
     <use xlink:href="#TimesNewRomanPSMT-35" x="50"/>
    </g>
   </g>
   <g id="text_42">
    <!-- 26 -->
    <g style="fill: #ffffff" transform="translate(331.416525 374.793123)scale(0.1 -0.1)">
     <use xlink:href="#TimesNewRomanPSMT-32"/>
     <use xlink:href="#TimesNewRomanPSMT-36" x="50"/>
    </g>
   </g>
   <g id="text_43">
    <!-- 27 -->
    <g style="fill: #ffffff" transform="translate(404.068598 113.24566)scale(0.1 -0.1)">
     <use xlink:href="#TimesNewRomanPSMT-32"/>
     <use xlink:href="#TimesNewRomanPSMT-37" x="50"/>
    </g>
   </g>
   <g id="text_44">
    <!-- 28 -->
    <g style="fill: #ffffff" transform="translate(215.173208 207.693355)scale(0.1 -0.1)">
     <use xlink:href="#TimesNewRomanPSMT-32"/>
     <use xlink:href="#TimesNewRomanPSMT-38" x="50"/>
    </g>
   </g>
   <g id="text_45">
    <!-- 29 -->
    <g style="fill: #ffffff" transform="translate(360.477354 113.24566)scale(0.1 -0.1)">
     <use xlink:href="#TimesNewRomanPSMT-32"/>
     <use xlink:href="#TimesNewRomanPSMT-39" x="50"/>
    </g>
   </g>
   <g id="text_46">
    <!-- 30 -->
    <g style="fill: #ffffff" transform="translate(389.538183 149.571697)scale(0.1 -0.1)">
     <use xlink:href="#TimesNewRomanPSMT-33"/>
     <use xlink:href="#TimesNewRomanPSMT-30" x="50"/>
    </g>
   </g>
   <g id="text_47">
    <!-- 31 -->
    <g style="fill: #ffffff" transform="translate(476.720671 222.22377)scale(0.1 -0.1)">
     <use xlink:href="#TimesNewRomanPSMT-33"/>
     <use xlink:href="#TimesNewRomanPSMT-31" x="50"/>
    </g>
   </g>
   <g id="text_48">
    <!-- 32 -->
    <g style="fill: #ffffff" transform="translate(316.88611 258.549806)scale(0.1 -0.1)">
     <use xlink:href="#TimesNewRomanPSMT-33"/>
     <use xlink:href="#TimesNewRomanPSMT-32" x="50"/>
    </g>
   </g>
   <g id="text_49">
    <!-- 33 -->
    <g style="fill: #ffffff" transform="translate(331.416525 294.875843)scale(0.1 -0.1)">
     <use xlink:href="#TimesNewRomanPSMT-33"/>
     <use xlink:href="#TimesNewRomanPSMT-33" x="50"/>
    </g>
   </g>
   <g id="text_50">
    <!-- 34 -->
    <g style="fill: #ffffff" transform="translate(200.642794 331.201879)scale(0.1 -0.1)">
     <use xlink:href="#TimesNewRomanPSMT-33"/>
     <use xlink:href="#TimesNewRomanPSMT-34" x="50"/>
    </g>
   </g>
   <g id="text_51">
    <!-- 35 -->
    <g style="fill: #ffffff" transform="translate(229.703623 352.997501)scale(0.1 -0.1)">
     <use xlink:href="#TimesNewRomanPSMT-33"/>
     <use xlink:href="#TimesNewRomanPSMT-35" x="50"/>
    </g>
   </g>
   <g id="text_52">
    <!-- 36 -->
    <g style="fill: #ffffff" transform="translate(178.847172 113.24566)scale(0.1 -0.1)">
     <use xlink:href="#TimesNewRomanPSMT-33"/>
     <use xlink:href="#TimesNewRomanPSMT-36" x="50"/>
    </g>
   </g>
   <g id="text_53">
    <!-- 37 -->
    <g style="fill: #ffffff" transform="translate(244.234037 84.184831)scale(0.1 -0.1)">
     <use xlink:href="#TimesNewRomanPSMT-33"/>
     <use xlink:href="#TimesNewRomanPSMT-37" x="50"/>
    </g>
   </g>
   <g id="text_54">
    <!-- 38 -->
    <g style="fill: #ffffff" transform="translate(222.438416 113.24566)scale(0.1 -0.1)">
     <use xlink:href="#TimesNewRomanPSMT-33"/>
     <use xlink:href="#TimesNewRomanPSMT-38" x="50"/>
    </g>
   </g>
   <g id="text_55">
    <!-- 39 -->
    <g style="fill: #ffffff" transform="translate(433.129427 389.323537)scale(0.1 -0.1)">
     <use xlink:href="#TimesNewRomanPSMT-33"/>
     <use xlink:href="#TimesNewRomanPSMT-39" x="50"/>
    </g>
   </g>
   <g id="text_56">
    <!-- 40 -->
    <g style="fill: #ffffff" transform="translate(331.416525 149.571697)scale(0.1 -0.1)">
     <use xlink:href="#TimesNewRomanPSMT-34"/>
     <use xlink:href="#TimesNewRomanPSMT-30" x="50"/>
    </g>
   </g>
   <g id="text_57">
    <!-- 41 -->
    <g style="fill: #ffffff" transform="translate(302.355696 389.323537)scale(0.1 -0.1)">
     <use xlink:href="#TimesNewRomanPSMT-34"/>
     <use xlink:href="#TimesNewRomanPSMT-31" x="50"/>
    </g>
   </g>
   <g id="text_58">
    <!-- 42 -->
    <g style="fill: #ffffff" transform="translate(462.190256 345.732294)scale(0.1 -0.1)">
     <use xlink:href="#TimesNewRomanPSMT-34"/>
     <use xlink:href="#TimesNewRomanPSMT-32" x="50"/>
    </g>
   </g>
   <g id="text_59">
    <!-- 43 -->
    <g style="fill: #ffffff" transform="translate(476.720671 374.793123)scale(0.1 -0.1)">
     <use xlink:href="#TimesNewRomanPSMT-34"/>
     <use xlink:href="#TimesNewRomanPSMT-33" x="50"/>
    </g>
   </g>
   <g id="text_60">
    <!-- 44 -->
    <g style="fill: #ffffff" transform="translate(142.521135 98.715246)scale(0.1 -0.1)">
     <use xlink:href="#TimesNewRomanPSMT-34"/>
     <use xlink:href="#TimesNewRomanPSMT-34" x="50"/>
    </g>
   </g>
   <g id="text_61">
    <!-- 45 -->
    <g style="fill: #ffffff" transform="translate(106.195099 222.22377)scale(0.1 -0.1)">
     <use xlink:href="#TimesNewRomanPSMT-34"/>
     <use xlink:href="#TimesNewRomanPSMT-35" x="50"/>
    </g>
   </g>
   <g id="text_62">
    <!-- 46 -->
    <g style="fill: #ffffff" transform="translate(120.725514 200.428148)scale(0.1 -0.1)">
     <use xlink:href="#TimesNewRomanPSMT-34"/>
     <use xlink:href="#TimesNewRomanPSMT-36" x="50"/>
    </g>
   </g>
   <g id="text_63">
    <!-- 47 -->
    <g style="fill: #ffffff" transform="translate(142.521135 309.406257)scale(0.1 -0.1)">
     <use xlink:href="#TimesNewRomanPSMT-34"/>
     <use xlink:href="#TimesNewRomanPSMT-37" x="50"/>
    </g>
   </g>
   <g id="text_64">
    <!-- 48 -->
    <g style="fill: #ffffff" transform="translate(127.990721 287.610635)scale(0.1 -0.1)">
     <use xlink:href="#TimesNewRomanPSMT-34"/>
     <use xlink:href="#TimesNewRomanPSMT-38" x="50"/>
    </g>
   </g>
   <g id="text_65">
    <!-- $A$ -->
    <g style="fill: #0000ff" transform="translate(80.649915 248.84735)scale(0.18 -0.18)">
     <defs>
      <path id="DejaVuSerif-Italic-41" d="M 1159 1691 
L 2872 1691 
L 2447 3909 
L 1159 1691 
z
M -488 0 
L -425 331 
L -16 331 
L 2491 4666 
L 3016 4666 
L 3841 331 
L 4297 331 
L 4234 0 
L 2538 0 
L 2600 331 
L 3119 331 
L 2928 1356 
L 966 1356 
L 375 331 
L 888 331 
L 825 0 
L -488 0 
z
" transform="scale(0.015625)"/>
     </defs>
     <use xlink:href="#DejaVuSerif-Italic-41" transform="translate(0 0.09375)"/>
    </g>
   </g>
   <g id="text_66">
    <!-- $B$ -->
    <g style="fill: #ff0000" transform="translate(493.95021 248.84735)scale(0.18 -0.18)">
     <defs>
      <path id="DejaVuSerif-Italic-42" d="M 1194 331 
L 2128 331 
Q 2691 331 2998 575 
Q 3306 819 3409 1350 
Q 3513 1878 3302 2120 
Q 3091 2363 2525 2363 
L 1591 2363 
L 1194 331 
z
M 1653 2694 
L 2447 2694 
Q 2959 2694 3234 2891 
Q 3509 3088 3591 3513 
Q 3675 3941 3476 4136 
Q 3278 4331 2766 4331 
L 1972 4331 
L 1653 2694 
z
M -97 0 
L -34 331 
L 559 331 
L 1338 4331 
L 744 4331 
L 809 4666 
L 3113 4666 
Q 3819 4666 4120 4377 
Q 4422 4088 4309 3513 
Q 4231 3097 3934 2850 
Q 3638 2603 3147 2547 
Q 3728 2472 3976 2167 
Q 4225 1863 4125 1350 
Q 3991 656 3489 328 
Q 2988 0 2059 0 
L -97 0 
z
" transform="scale(0.015625)"/>
     </defs>
     <use xlink:href="#DejaVuSerif-Italic-42" transform="translate(0 0.09375)"/>
    </g>
   </g>
   <g id="legend_1">
    <g id="line2d_16">
     <path d="M 139.605344 26.1 
L 164.805344 26.1 
L 190.005344 26.1 
" style="fill: none; stroke: #ff0000; stroke-width: 1.5; stroke-linecap: square"/>
     <g>
      <use xlink:href="#m50cfa10738" x="164.805344" y="26.1" style="fill: #ff0000; stroke: #ff0000"/>
     </g>
    </g>
    <g id="text_67">
     <!-- Run 0 - Length: 31.552 -->
     <g transform="translate(210.165344 34.92)scale(0.252 -0.252)">
      <defs>
       <path id="TimesNewRomanPSMT-52" d="M 4325 0 
L 3194 0 
L 1759 1981 
Q 1600 1975 1500 1975 
Q 1459 1975 1412 1976 
Q 1366 1978 1316 1981 
L 1316 750 
Q 1316 350 1403 253 
Q 1522 116 1759 116 
L 1925 116 
L 1925 0 
L 109 0 
L 109 116 
L 269 116 
Q 538 116 653 291 
Q 719 388 719 750 
L 719 3488 
Q 719 3888 631 3984 
Q 509 4122 269 4122 
L 109 4122 
L 109 4238 
L 1653 4238 
Q 2328 4238 2648 4139 
Q 2969 4041 3192 3777 
Q 3416 3513 3416 3147 
Q 3416 2756 3161 2468 
Q 2906 2181 2372 2063 
L 3247 847 
Q 3547 428 3762 290 
Q 3978 153 4325 116 
L 4325 0 
z
M 1316 2178 
Q 1375 2178 1419 2176 
Q 1463 2175 1491 2175 
Q 2097 2175 2405 2437 
Q 2713 2700 2713 3106 
Q 2713 3503 2464 3751 
Q 2216 4000 1806 4000 
Q 1625 4000 1316 3941 
L 1316 2178 
z
" transform="scale(0.015625)"/>
       <path id="TimesNewRomanPSMT-75" d="M 2709 2863 
L 2709 1128 
Q 2709 631 2732 520 
Q 2756 409 2807 365 
Q 2859 322 2928 322 
Q 3025 322 3147 375 
L 3191 266 
L 2334 -88 
L 2194 -88 
L 2194 519 
Q 1825 119 1631 15 
Q 1438 -88 1222 -88 
Q 981 -88 804 51 
Q 628 191 559 409 
Q 491 628 491 1028 
L 491 2306 
Q 491 2509 447 2587 
Q 403 2666 317 2708 
Q 231 2750 6 2747 
L 6 2863 
L 1009 2863 
L 1009 947 
Q 1009 547 1148 422 
Q 1288 297 1484 297 
Q 1619 297 1789 381 
Q 1959 466 2194 703 
L 2194 2325 
Q 2194 2569 2105 2655 
Q 2016 2741 1734 2747 
L 1734 2863 
L 2709 2863 
z
" transform="scale(0.015625)"/>
       <path id="TimesNewRomanPSMT-6e" d="M 1034 2341 
Q 1538 2947 1994 2947 
Q 2228 2947 2397 2830 
Q 2566 2713 2666 2444 
Q 2734 2256 2734 1869 
L 2734 647 
Q 2734 375 2778 278 
Q 2813 200 2889 156 
Q 2966 113 3172 113 
L 3172 0 
L 1756 0 
L 1756 113 
L 1816 113 
Q 2016 113 2095 173 
Q 2175 234 2206 353 
Q 2219 400 2219 647 
L 2219 1819 
Q 2219 2209 2117 2386 
Q 2016 2563 1775 2563 
Q 1403 2563 1034 2156 
L 1034 647 
Q 1034 356 1069 288 
Q 1113 197 1189 155 
Q 1266 113 1500 113 
L 1500 0 
L 84 0 
L 84 113 
L 147 113 
Q 366 113 442 223 
Q 519 334 519 647 
L 519 1709 
Q 519 2225 495 2337 
Q 472 2450 423 2490 
Q 375 2531 294 2531 
Q 206 2531 84 2484 
L 38 2597 
L 900 2947 
L 1034 2947 
L 1034 2341 
z
" transform="scale(0.015625)"/>
       <path id="TimesNewRomanPSMT-20" transform="scale(0.015625)"/>
       <path id="TimesNewRomanPSMT-2d" d="M 259 1672 
L 1875 1672 
L 1875 1200 
L 259 1200 
L 259 1672 
z
" transform="scale(0.015625)"/>
       <path id="TimesNewRomanPSMT-4c" d="M 3669 1172 
L 3772 1150 
L 3409 0 
L 128 0 
L 128 116 
L 288 116 
Q 556 116 672 291 
Q 738 391 738 753 
L 738 3488 
Q 738 3884 650 3984 
Q 528 4122 288 4122 
L 128 4122 
L 128 4238 
L 2047 4238 
L 2047 4122 
Q 1709 4125 1573 4059 
Q 1438 3994 1388 3894 
Q 1338 3794 1338 3416 
L 1338 753 
Q 1338 494 1388 397 
Q 1425 331 1503 300 
Q 1581 269 1991 269 
L 2300 269 
Q 2788 269 2984 341 
Q 3181 413 3343 595 
Q 3506 778 3669 1172 
z
" transform="scale(0.015625)"/>
       <path id="TimesNewRomanPSMT-65" d="M 681 1784 
Q 678 1147 991 784 
Q 1303 422 1725 422 
Q 2006 422 2214 576 
Q 2422 731 2563 1106 
L 2659 1044 
Q 2594 616 2278 264 
Q 1963 -88 1488 -88 
Q 972 -88 605 314 
Q 238 716 238 1394 
Q 238 2128 614 2539 
Q 991 2950 1559 2950 
Q 2041 2950 2350 2633 
Q 2659 2316 2659 1784 
L 681 1784 
z
M 681 1966 
L 2006 1966 
Q 1991 2241 1941 2353 
Q 1863 2528 1708 2628 
Q 1553 2728 1384 2728 
Q 1125 2728 920 2526 
Q 716 2325 681 1966 
z
" transform="scale(0.015625)"/>
       <path id="TimesNewRomanPSMT-67" d="M 966 1044 
Q 703 1172 562 1401 
Q 422 1631 422 1909 
Q 422 2334 742 2640 
Q 1063 2947 1563 2947 
Q 1972 2947 2272 2747 
L 2878 2747 
Q 3013 2747 3034 2739 
Q 3056 2731 3066 2713 
Q 3084 2684 3084 2613 
Q 3084 2531 3069 2500 
Q 3059 2484 3036 2475 
Q 3013 2466 2878 2466 
L 2506 2466 
Q 2681 2241 2681 1891 
Q 2681 1491 2375 1206 
Q 2069 922 1553 922 
Q 1341 922 1119 984 
Q 981 866 932 777 
Q 884 688 884 625 
Q 884 572 936 522 
Q 988 472 1138 450 
Q 1225 438 1575 428 
Q 2219 413 2409 384 
Q 2700 344 2873 169 
Q 3047 -6 3047 -263 
Q 3047 -616 2716 -925 
Q 2228 -1381 1444 -1381 
Q 841 -1381 425 -1109 
Q 191 -953 191 -784 
Q 191 -709 225 -634 
Q 278 -519 444 -313 
Q 466 -284 763 25 
Q 600 122 533 198 
Q 466 275 466 372 
Q 466 481 555 628 
Q 644 775 966 1044 
z
M 1509 2797 
Q 1278 2797 1122 2612 
Q 966 2428 966 2047 
Q 966 1553 1178 1281 
Q 1341 1075 1591 1075 
Q 1828 1075 1981 1253 
Q 2134 1431 2134 1813 
Q 2134 2309 1919 2591 
Q 1759 2797 1509 2797 
z
M 934 0 
Q 788 -159 713 -296 
Q 638 -434 638 -550 
Q 638 -700 819 -813 
Q 1131 -1006 1722 -1006 
Q 2284 -1006 2551 -807 
Q 2819 -609 2819 -384 
Q 2819 -222 2659 -153 
Q 2497 -84 2016 -72 
Q 1313 -53 934 0 
z
" transform="scale(0.015625)"/>
       <path id="TimesNewRomanPSMT-74" d="M 1031 3803 
L 1031 2863 
L 1700 2863 
L 1700 2644 
L 1031 2644 
L 1031 788 
Q 1031 509 1111 412 
Q 1191 316 1316 316 
Q 1419 316 1516 380 
Q 1613 444 1666 569 
L 1788 569 
Q 1678 263 1478 108 
Q 1278 -47 1066 -47 
Q 922 -47 784 33 
Q 647 113 581 261 
Q 516 409 516 719 
L 516 2644 
L 63 2644 
L 63 2747 
Q 234 2816 414 2980 
Q 594 3144 734 3369 
Q 806 3488 934 3803 
L 1031 3803 
z
" transform="scale(0.015625)"/>
       <path id="TimesNewRomanPSMT-68" d="M 1041 4444 
L 1041 2350 
Q 1388 2731 1591 2839 
Q 1794 2947 1997 2947 
Q 2241 2947 2416 2812 
Q 2591 2678 2675 2391 
Q 2734 2191 2734 1659 
L 2734 647 
Q 2734 375 2778 275 
Q 2809 200 2884 156 
Q 2959 113 3159 113 
L 3159 0 
L 1753 0 
L 1753 113 
L 1819 113 
Q 2019 113 2097 173 
Q 2175 234 2206 353 
Q 2216 403 2216 647 
L 2216 1659 
Q 2216 2128 2167 2275 
Q 2119 2422 2012 2495 
Q 1906 2569 1756 2569 
Q 1603 2569 1437 2487 
Q 1272 2406 1041 2159 
L 1041 647 
Q 1041 353 1073 281 
Q 1106 209 1195 161 
Q 1284 113 1503 113 
L 1503 0 
L 84 0 
L 84 113 
Q 275 113 384 172 
Q 447 203 484 290 
Q 522 378 522 647 
L 522 3238 
Q 522 3728 498 3840 
Q 475 3953 426 3993 
Q 378 4034 297 4034 
Q 231 4034 84 3984 
L 41 4094 
L 897 4444 
L 1041 4444 
z
" transform="scale(0.015625)"/>
       <path id="TimesNewRomanPSMT-3a" d="M 903 2950 
Q 1047 2950 1148 2848 
Q 1250 2747 1250 2603 
Q 1250 2459 1148 2357 
Q 1047 2256 903 2256 
Q 759 2256 657 2357 
Q 556 2459 556 2603 
Q 556 2747 657 2848 
Q 759 2950 903 2950 
z
M 897 609 
Q 1044 609 1145 506 
Q 1247 403 1247 259 
Q 1247 116 1144 14 
Q 1041 -88 897 -88 
Q 753 -88 651 14 
Q 550 116 550 259 
Q 550 403 651 506 
Q 753 609 897 609 
z
" transform="scale(0.015625)"/>
       <path id="TimesNewRomanPSMT-2e" d="M 800 606 
Q 947 606 1047 504 
Q 1147 403 1147 259 
Q 1147 116 1045 14 
Q 944 -88 800 -88 
Q 656 -88 554 14 
Q 453 116 453 259 
Q 453 406 554 506 
Q 656 606 800 606 
z
" transform="scale(0.015625)"/>
      </defs>
      <use xlink:href="#TimesNewRomanPSMT-52"/>
      <use xlink:href="#TimesNewRomanPSMT-75" x="66.699219"/>
      <use xlink:href="#TimesNewRomanPSMT-6e" x="116.699219"/>
      <use xlink:href="#TimesNewRomanPSMT-20" x="166.699219"/>
      <use xlink:href="#TimesNewRomanPSMT-30" x="191.699219"/>
      <use xlink:href="#TimesNewRomanPSMT-20" x="241.699219"/>
      <use xlink:href="#TimesNewRomanPSMT-2d" x="266.699219"/>
      <use xlink:href="#TimesNewRomanPSMT-20" x="300"/>
      <use xlink:href="#TimesNewRomanPSMT-4c" x="325"/>
      <use xlink:href="#TimesNewRomanPSMT-65" x="386.083984"/>
      <use xlink:href="#TimesNewRomanPSMT-6e" x="430.46875"/>
      <use xlink:href="#TimesNewRomanPSMT-67" x="480.46875"/>
      <use xlink:href="#TimesNewRomanPSMT-74" x="530.46875"/>
      <use xlink:href="#TimesNewRomanPSMT-68" x="558.251953"/>
      <use xlink:href="#TimesNewRomanPSMT-3a" x="608.251953"/>
      <use xlink:href="#TimesNewRomanPSMT-20" x="636.035156"/>
      <use xlink:href="#TimesNewRomanPSMT-33" x="661.035156"/>
      <use xlink:href="#TimesNewRomanPSMT-31" x="711.035156"/>
      <use xlink:href="#TimesNewRomanPSMT-2e" x="761.035156"/>
      <use xlink:href="#TimesNewRomanPSMT-35" x="786.035156"/>
      <use xlink:href="#TimesNewRomanPSMT-35" x="836.035156"/>
      <use xlink:href="#TimesNewRomanPSMT-32" x="886.035156"/>
     </g>
    </g>
   </g>
  </g>
 </g>
 <defs>
  <clipPath id="pa3f165a2d6">
   <rect x="74.869063" y="38.191244" width="435.912437" height="435.912437"/>
  </clipPath>
 </defs>
</svg>
